<svg xmlns="http://www.w3.org/2000/svg" aria-hidden="true" fill="currentColor" width="135" height="765" viewBox="0 0 135 765">
  <path id="katakana-profile" 
  d="M102.6,127.7c-1.3-0.6-2.2-1.8-2.8-3.5c-17-11.6-38.7-32.9-53.1-51.7c-5.9,7.3-14.9,18.1-21.4,24L8.1,76.7
	C26.9,60,46.9,35.4,58.7,14.8l16.1,15.5c-4.2,8.1-10.1,16.8-15.4,24.6C69.6,68.1,82.9,81,92.4,88.4V0h21.1v106.3l1.6,2.9
	L102.6,127.7z M131.8,181.8l-1.5,28c-1.8-0.1-3.7-1.9-4.1-5h-19.5v25.6l1.6,4l-7.6,19.5c-0.9-0.4-2.2-1.5-2.8-2.8
	c-53.6-9.5-81.1-29.3-97.5-75c5.1-3.1,14.1-10.4,19-15.2c13,39.4,35,57.5,66.2,62.5v-62.7H56.8v-21.7h49.9v42.8H131.8z M48,268.1
	h72.6l-1.5,27.2c-1.6-0.1-2.8-1.5-3.2-4.5H48V268.1z M127.2,357.4c-1.6-0.1-2.8-1.5-3.2-4.5H78.6c-31.2,0-60.5-10.1-77.9-50.8
	c4.4-3.5,12.7-12,16.4-17.1c14.8,37.8,38.7,44.8,61.6,44.8h49.9L127.2,357.4z M59.9,494.4v-46c-24.7-3.1-44.6-13.8-59.9-40
	c4.7-5.1,10.7-12.9,14.4-18.5c12.3,23,25.8,33.1,45.5,35.7v-52.9h20.3v54.6h19.6c-2.1-12-4.1-27.4-5.1-41.7
	c5.4-1.3,11.3-3.4,17.3-5.9c2.6,28.3,9.5,68.1,17.9,88.3l-17,15.2c-0.7-0.9-0.7-2.2-0.7-4.7c-3.1-8.3-6.6-22-8.3-31.2l-0.4,7.2
	c-1.8-0.3-3.2-1.5-3.8-4.4c-7.2,0-13.2,0-19.3-0.3v44.4H59.9z M131.8,550.8l-1.5,28c-1.8-0.1-3.7-1.9-4.1-5h-19.5v25.6l1.6,4
	l-7.6,19.5c-0.9-0.4-2.2-1.5-2.8-2.8c-53.6-9.5-81.1-29.3-97.5-75c5.1-3.1,14.1-10.4,19-15.2c13,39.4,35,57.5,66.2,62.5v-62.7H56.8
	v-21.7h49.9v42.8H131.8z M113.5,733.4c-1.3-0.6-2.3-1.7-2.9-3.1c-19-8.3-31.3-14.9-47.4-26.5c-11.1,13.6-29.6,34-42.9,46.7
	L2.6,730.7c13-10.5,33.4-30.3,42.9-41.3c-15.4-14.2-31.6-31.8-42.8-49.6c4.8-3.7,13-11.6,17.1-16.5c18.6,34.4,50.7,63.1,80.7,76.3
	v-63.3h21.2v76l1,3.7L113.5,733.4z" />
</svg>

