<?xml version="1.0" encoding="utf-8"?>
<!-- Generator: Adobe Illustrator 24.1.0, SVG Export Plug-In . SVG Version: 6.00 Build 0)  -->
<svg version="1.1" id="Capa_1" xmlns="http://www.w3.org/2000/svg" xmlns:xlink="http://www.w3.org/1999/xlink" x="0px" y="0px"
	 viewBox="0 0 750 137" style="enable-background:new 0 0 750 137;" xml:space="preserve">
<style type="text/css">
	.st0{fill:none;}
</style>
<path class="st0" d="M132,32.7c-0.6,1.3-1.7,2.2-3.5,2.7c-11.4,16.7-32.5,38.1-50.9,52.4c7.2,5.8,17.9,14.7,23.7,21.1l-19.5,17
	c-16.4-18.6-40.7-38.3-61-49.9L36,60.1c7.9,4.2,16.6,10,24.2,15.2c13-10,25.7-23.1,33-32.5H6.2V22h104.8l2.9-1.6L132,32.7z M185.4,4
	l27.6,1.4c-0.1,1.7-1.9,3.6-4.9,4v19.2h25.3l3.9-1.6l19.2,7.5c-0.4,0.9-1.4,2.2-2.7,2.7c-9.4,52.8-28.9,79.9-73.9,96.1
	c-3-5-10.2-13.9-15-18.8c38.8-12.8,56.7-34.5,61.6-65.2h-61.8v28.4h-21.4V28.7h42.1V4z M270.4,86.6V15l26.8,1.4
	c-0.1,1.6-1.4,2.7-4.5,3.2v67H270.4z M358.4,8.5c-0.1,1.6-1.4,2.7-4.5,3.2v44.7c0,30.7-10,59.6-50.1,76.8
	c-3.5-4.3-11.8-12.6-16.9-16.2c37.2-14.6,44.2-38.1,44.2-60.8V7L358.4,8.5z M493.5,74.9h-45.3c-3,24.4-13.6,44-39.4,59
	c-5.1-4.6-12.7-10.5-18.2-14.1c22.7-12.1,32.6-25.4,35.2-44.9h-52.1V54.8h53.8V35.5c-11.8,2-27,4-41.1,5c-1.3-5.3-3.3-11.1-5.8-17
	c27.9-2.6,67.1-9.4,87-17.6l15,16.7c-0.9,0.7-2.2,0.7-4.6,0.7c-8.2,3-21.7,6.5-30.7,8.2l7.1,0.4c-0.3,1.7-1.4,3.2-4.3,3.7
	c0,7.1,0,13-0.3,19.1h43.7V74.9z M549,4l27.6,1.4c-0.1,1.7-1.9,3.6-4.9,4v19.2h25.3l3.9-1.6l19.2,7.5c-0.4,0.9-1.4,2.2-2.7,2.7
	c-9.4,52.8-28.9,79.9-73.9,96.1c-3-5-10.3-13.9-15-18.8c38.8-12.8,56.7-34.5,61.6-65.2h-61.8v28.4h-21.4V28.7H549V4z M729,22
	c-0.6,1.3-1.7,2.3-3,2.9c-8.2,18.8-14.7,30.9-26.1,46.8c13.4,11,33.5,29.2,46,42.3l-19.5,17.3C716,118.4,696.5,98.4,685.7,89
	c-14,15.2-31.3,31.2-48.9,42.1c-3.6-4.7-11.4-12.8-16.3-16.9c33.9-18.3,62.2-49.9,75.2-79.5h-62.3V13.8h74.9l3.6-1L729,22z"/>
</svg>
